<svg width="71" height="67" viewBox="0 0 71 67" fill="none" xmlns="http://www.w3.org/2000/svg">
<g id="&#240;&#159;&#166;&#134; icon &#34;researchgate square&#34;">
<path id="Vector" d="M7.5204 0C3.36851 0 0 3.2154 0 7.17857V59.8214C0 63.7846 3.36851 67 7.5204 67H62.67C66.8219 67 70.1904 63.7846 70.1904 59.8214V7.17857C70.1904 3.2154 66.8219 0 62.67 0H7.5204ZM50.9509 9.57143C51.8325 9.57143 52.6322 9.66884 53.3414 9.86761C54.0426 10.0646 54.6715 10.3364 55.2264 10.6843C55.7733 11.0286 56.2465 11.434 56.6371 11.893C57.0377 12.3538 57.3601 12.8454 57.6126 13.3734C57.7107 13.5416 57.683 13.6755 57.5266 13.7692L55.3488 14.6238C55.1643 14.7176 55.0344 14.6699 54.932 14.4842C54.4433 13.6198 54.0264 13.052 53.3414 12.639C52.6482 12.2278 52.0068 12.0326 50.9509 12.0326C49.8028 12.0326 49.2899 12.2506 48.5708 12.7421C47.8574 13.2241 47.3346 13.8303 47.026 14.7538C46.9641 14.9203 46.9079 15.127 46.8418 15.3698C46.7877 15.6166 46.7436 15.9187 46.7158 16.2724C46.6876 16.6263 46.6614 17.0643 46.6374 17.5807C46.6214 18.0971 46.6135 18.7243 46.6135 19.451C46.6135 20.1815 46.6214 20.8087 46.6374 21.3251C46.6614 21.8396 46.6876 22.2775 46.7158 22.6314C46.7436 22.989 46.7877 23.2893 46.8418 23.538C46.9079 23.7771 46.9641 23.9833 47.026 24.1517C47.3346 25.0716 47.7754 25.5746 48.4245 25.9782C49.0656 26.3875 49.8028 26.6822 50.9509 26.6822C51.9707 26.6822 52.9044 26.4048 53.5134 25.982C54.1165 25.5594 54.6173 25.0011 54.8417 24.2379C54.94 23.9166 55.0662 23.5167 55.1523 23.0272C55.2305 22.5376 55.2307 22.0196 55.2307 21.3044C55.2307 21.1914 55.1643 21.1338 55.0541 21.1338H51.5659C51.3696 21.1338 51.2734 21.0422 51.2734 20.8548V18.9463C51.2734 18.7569 51.3696 18.665 51.5659 18.665H57.9673C58.1677 18.665 58.262 18.7569 58.262 18.9463V20.5773C58.262 21.4418 58.2619 22.2434 58.1677 22.9854C58.0775 23.7274 57.9554 24.3697 57.8011 24.8382C57.3122 26.3052 56.5369 27.3495 55.3488 28.1278C54.1566 28.9119 52.6199 29.3344 50.9509 29.3344C49.2359 29.3344 47.7916 28.958 46.6135 28.2101C45.4335 27.4528 44.5897 26.3414 44.0749 24.8554C43.9766 24.5744 43.9007 24.2857 43.8427 23.9835C43.7825 23.6833 43.7282 23.3332 43.6802 22.9296C43.6301 22.5223 43.5981 22.0444 43.5783 21.4802C43.5582 20.9199 43.5501 20.2352 43.5501 19.451C43.5501 18.663 43.5582 17.9881 43.5783 17.4259C43.5982 16.8617 43.6301 16.3776 43.6802 15.9742C43.7282 15.5725 43.7825 15.2208 43.8427 14.9206C43.9007 14.6184 43.9769 14.3315 44.0752 14.0504C44.59 12.5645 45.4335 11.4476 46.6135 10.6978C47.7916 9.94807 49.2359 9.57143 50.9509 9.57143ZM27.1874 21.2086C34.0135 21.2086 39.2204 24.1785 39.2204 30.5776C39.2204 34.9188 35.6301 39.2641 30.7817 40.3465C33.7168 45.3189 37.2449 49.7177 39.8814 52.4562C41.4323 54.0569 43.5861 55.4873 45.7399 55.4873V56.9697C45.083 57.2583 44.007 57.4286 42.9911 57.4286C39.5191 57.4286 36.7681 56.1165 34.9691 54.0569C32.9975 51.888 29.5254 47.2007 25.8749 40.9756C23.9555 40.9756 22.6993 40.9756 21.2628 40.8608V50.4001C21.2628 53.944 22.1045 54.688 23.7191 54.9119L26.8327 55.317V56.9697C25.3361 56.9143 21.864 56.8011 19.1713 56.8011C16.3562 56.8011 13.5432 56.9143 11.9284 56.9697V55.317L14.2005 54.9119C15.7632 54.6289 16.6528 53.944 16.6528 50.4001V27.8926C16.6528 24.3471 15.7632 23.666 14.2005 23.3791L11.9284 22.9813V21.3234C13.421 21.3788 15.8173 21.3786 18.2156 21.3786C20.8441 21.3786 23.6592 21.2086 27.1874 21.2086ZM26.1115 23.7787C24.4946 23.7787 22.6433 23.7788 21.2628 23.8935V38.2276C22.6433 38.3518 23.537 38.4034 25.5726 38.4034C30.902 38.4034 34.1316 35.3761 34.1316 30.8627C34.1316 26.2958 31.1422 23.7787 26.1115 23.7787Z" fill="white"/>
</g>
</svg>
