<svg width="73" height="71" viewBox="0 0 73 71" fill="none" xmlns="http://www.w3.org/2000/svg">
<g id="&#240;&#159;&#166;&#134; icon &#34;best practices&#34;">
<g id="Group">
<path id="Vector" d="M57.3944 2H15.6056C8.09145 2 2 7.91489 2 15.2113V55.7887C2 63.0851 8.09145 69 15.6056 69H57.3944C64.9086 69 71 63.0851 71 55.7887V15.2113C71 7.91489 64.9086 2 57.3944 2Z" fill="white" stroke="white" stroke-width="3.06686"/>
<g id="Group_2">
<path id="Vector_2" d="M37.9211 29.9113L46.8573 11.863C46.9867 11.6024 47.2574 11.4368 47.5554 11.4368H60.0393C60.3055 11.4368 60.5528 11.5697 60.6949 11.7885C60.8363 12.0073 60.8522 12.2816 60.7373 12.5144L48.8894 36.4438C48.7934 36.6373 48.6171 36.782 48.4046 36.8411C48.335 36.8606 48.2632 36.8702 48.1914 36.8702C48.0462 36.8702 47.9025 36.8305 47.777 36.7538L38.2048 30.8727C37.8727 30.6685 37.751 30.255 37.9211 29.9113Z" fill="#FF4F19"/>
<path id="Vector_3" d="M54.3101 11.4368H60.0392C60.3054 11.4368 60.5527 11.5697 60.6948 11.7885C60.8363 12.0073 60.8521 12.2816 60.7372 12.5144L48.8894 36.4438C48.7933 36.6373 48.617 36.782 48.4046 36.8411C48.335 36.8606 48.2631 36.8702 48.1913 36.8702C48.0461 36.8702 47.9024 36.8305 47.7769 36.7538L43.175 33.9264L54.3101 11.4368Z" fill="black"/>
<path id="Vector_4" d="M34.6916 29.9113L25.7555 11.863C25.6261 11.6024 25.3554 11.4368 25.0574 11.4368H12.5735C12.3073 11.4368 12.06 11.5697 11.9179 11.7885C11.7765 12.0073 11.7606 12.2816 11.8755 12.5144L23.7234 36.4438C23.8194 36.6373 23.9957 36.782 24.2081 36.8411C24.2778 36.8606 24.3496 36.8702 24.4214 36.8702C24.5666 36.8702 24.7103 36.8305 24.8358 36.7538L34.408 30.8727C34.74 30.6685 34.8618 30.255 34.6916 29.9113Z" fill="#FF4F19"/>
<path id="Vector_5" d="M18.3027 11.4368H12.5735C12.3073 11.4368 12.06 11.5697 11.9179 11.7885C11.7765 12.0073 11.7606 12.2816 11.8755 12.5144L23.7234 36.4438C23.8194 36.6373 23.9957 36.782 24.2081 36.8411C24.2778 36.8606 24.3496 36.8702 24.4214 36.8702C24.5666 36.8702 24.7103 36.8305 24.8358 36.7538L29.4377 33.9264L18.3027 11.4368Z" fill="black"/>
<path id="Vector_6" d="M36.317 59.5634C44.8711 59.5634 51.8056 52.8299 51.8056 44.5237C51.8056 36.2176 44.8711 29.4841 36.317 29.4841C27.763 29.4841 20.8285 36.2176 20.8285 44.5237C20.8285 52.8299 27.763 59.5634 36.317 59.5634Z" fill="#010101"/>
<path id="Vector_7" d="M36.317 59.5634C40.5941 59.5634 44.4663 57.88 47.269 55.1584L25.365 33.8892C22.562 36.6108 20.8285 40.3707 20.8285 44.5238C20.8285 52.8299 27.7629 59.5634 36.317 59.5634Z" fill="#FF9100"/>
<path id="Vector_8" d="M40.3668 51.9691C40.1127 51.9691 39.857 51.9096 39.6211 51.7892L36.3169 50.1028L33.0127 51.7892C32.4697 52.0657 31.8231 52.0198 31.3285 51.6706C30.8316 51.3203 30.5882 50.738 30.6918 50.1508L31.3225 46.5789L28.6491 44.0495C28.2097 43.6331 28.0546 43.0228 28.2445 42.4563C28.4343 41.8898 28.9289 41.484 29.5362 41.3981L33.2298 40.877L34.8823 37.6272C35.153 37.0933 35.7029 36.7614 36.3161 36.761C36.9303 36.761 37.4808 37.0929 37.7523 37.6272L39.4041 40.877L43.0969 41.3981C43.7049 41.484 44.1996 41.8897 44.3894 42.4563C44.5793 43.0229 44.4242 43.6331 43.9848 44.0491L41.3114 46.5789L41.9428 50.1508C42.0464 50.738 41.803 51.3203 41.3061 51.6706C41.0255 51.8686 40.6973 51.9691 40.3668 51.9691ZM29.7305 42.9722L32.6951 45.7778C32.8774 45.9508 32.9605 46.1997 32.9175 46.4435L32.2179 50.405L32.6527 51.1236L32.2927 50.4579L35.9569 48.5876C36.1823 48.4722 36.4515 48.4722 36.6768 48.5876L40.341 50.4579L41.1797 50.278L40.4166 50.4051L39.7164 46.4436C39.6733 46.1998 39.7564 45.9508 39.9387 45.7779L42.9033 42.9723L42.9858 42.1424L42.8747 42.8867L38.7786 42.3088C38.5261 42.2732 38.3083 42.1193 38.1956 41.8972L36.3639 38.293C36.3639 38.2937 36.3177 38.2933 36.2897 38.293C36.2784 38.293 36.2708 38.293 36.2708 38.293L34.4383 41.8976C34.3257 42.1193 34.1079 42.2732 33.8553 42.3088L29.7593 42.8867L29.1898 43.511L29.7305 42.9722Z" fill="white"/>
<path id="Vector_9" d="M48.7099 45.2759C48.508 45.2759 48.3069 45.1929 48.1593 45.0578C48.0126 44.9149 47.9354 44.7192 47.9354 44.5239C47.9354 44.3282 48.0126 44.1329 48.1593 43.99C48.446 43.7117 48.9647 43.7117 49.2514 43.99C49.3988 44.1329 49.4843 44.3282 49.4843 44.5239C49.4843 44.7192 49.3988 44.9149 49.2514 45.0578C49.1123 45.1929 48.9111 45.2759 48.7099 45.2759Z" fill="white"/>
<path id="Vector_10" d="M36.3191 33.2441C36.1096 33.2441 35.916 33.1611 35.7686 33.0261C35.6218 32.8832 35.5447 32.6875 35.5447 32.4922C35.5447 32.2965 35.6218 32.1011 35.7686 31.9583C36.0552 31.6799 36.574 31.6799 36.8606 31.9583C37.0081 32.1011 37.0935 32.2965 37.0935 32.4922C37.0935 32.6875 37.0081 32.8832 36.8606 33.0261C36.7214 33.1611 36.5203 33.2441 36.3191 33.2441Z" fill="white"/>
<path id="Vector_11" d="M27.5524 36.7705C27.3512 36.7705 27.1493 36.6875 27.0101 36.5447C26.8627 36.4096 26.778 36.2139 26.778 36.0185C26.778 35.8155 26.8627 35.6198 27.0101 35.4846C27.2892 35.2063 27.8155 35.2063 28.1021 35.4846C28.2489 35.6275 28.3267 35.8155 28.3267 36.0185C28.3267 36.2139 28.2488 36.4096 28.1021 36.5447C27.9548 36.6876 27.7612 36.7705 27.5524 36.7705Z" fill="white"/>
<path id="Vector_12" d="M45.0775 53.7804C44.8764 53.7804 44.6744 53.7051 44.5277 53.5623C44.3885 53.4269 44.3031 53.2312 44.3031 53.0284C44.3031 52.8327 44.3886 52.6374 44.5277 52.5018C44.8219 52.2162 45.3331 52.2162 45.6273 52.5018C45.7665 52.6373 45.8519 52.8327 45.8519 53.0284C45.8519 53.2311 45.7664 53.4191 45.6273 53.5623C45.4799 53.7052 45.2788 53.7804 45.0775 53.7804Z" fill="white"/>
<path id="Vector_13" d="M45.0775 36.7705C44.8764 36.7705 44.6744 36.6875 44.5277 36.5524C44.3885 36.4096 44.3031 36.2139 44.3031 36.0185C44.3031 35.8155 44.3886 35.6198 44.5277 35.4846C44.8143 35.2063 45.3331 35.2063 45.6273 35.4846C45.7665 35.6198 45.8519 35.8155 45.8519 36.0185C45.8519 36.2139 45.7664 36.4096 45.6273 36.5524C45.4799 36.6876 45.2788 36.7705 45.0775 36.7705Z" fill="white"/>
<path id="Vector_14" d="M47.7647 40.6733C47.5635 40.6733 47.3623 40.5907 47.2148 40.4476C47.0756 40.3124 46.9902 40.1167 46.9902 39.9214C46.9902 39.7183 47.0757 39.5226 47.2148 39.3875C47.509 39.1091 48.0202 39.1091 48.3144 39.3875C48.4543 39.5226 48.539 39.7183 48.539 39.9214C48.539 40.1167 48.4543 40.3124 48.3144 40.4476C48.1678 40.5907 47.9658 40.6733 47.7647 40.6733Z" fill="white"/>
<path id="Vector_15" d="M31.5712 34.1611C31.37 34.1611 31.1689 34.0785 31.0297 33.9357C30.8822 33.8003 30.7968 33.6049 30.7968 33.4092C30.7968 33.2138 30.8822 33.0181 31.0297 32.8752C31.3155 32.5969 31.8351 32.5969 32.1209 32.8752C32.2684 33.0181 32.3455 33.2061 32.3455 33.4092C32.3455 33.6049 32.2684 33.8002 32.1209 33.9431C31.9743 34.0785 31.7807 34.1611 31.5712 34.1611Z" fill="white"/>
<path id="Vector_16" d="M47.7647 49.8777C47.5635 49.8777 47.3623 49.8028 47.2148 49.6596C47.0756 49.5167 46.9902 49.3287 46.9902 49.1257C46.9902 48.9304 47.0757 48.7347 47.2148 48.5995C47.5015 48.3138 48.0278 48.3138 48.3144 48.5995C48.4543 48.7347 48.539 48.9304 48.539 49.1257C48.539 49.3287 48.4543 49.5167 48.3144 49.6596C48.1678 49.8028 47.9658 49.8777 47.7647 49.8777Z" fill="white"/>
<path id="Vector_17" d="M41.058 34.1611C40.8568 34.1611 40.6557 34.0785 40.5082 33.9431C40.369 33.8002 40.2836 33.6049 40.2836 33.4092C40.2836 33.2061 40.369 33.0108 40.5082 32.8752C40.7948 32.5969 41.3136 32.5969 41.6077 32.8752C41.7476 33.0181 41.8323 33.2061 41.8323 33.4092C41.8323 33.6049 41.7476 33.8002 41.6077 33.9431C41.4611 34.0785 41.2599 34.1611 41.058 34.1611Z" fill="white"/>
<path id="Vector_18" d="M48.4618 42.8771C48.2523 42.8771 48.0512 42.7941 47.912 42.659C47.7645 42.5158 47.6874 42.3204 47.6874 42.1251C47.6874 41.9294 47.7645 41.734 47.912 41.5908C48.1986 41.3128 48.7174 41.3128 49.004 41.5908C49.1508 41.7339 49.2361 41.9294 49.2361 42.1251C49.2361 42.3204 49.1507 42.5157 49.004 42.659C48.8642 42.7941 48.663 42.8771 48.4618 42.8771Z" fill="white"/>
<path id="Vector_19" d="M33.8484 33.4846C33.6389 33.4846 33.4453 33.402 33.2986 33.2665C33.1511 33.1237 33.074 32.9357 33.074 32.7326C33.074 32.5373 33.1511 32.3416 33.2986 32.1987C33.5852 31.9204 34.104 31.9204 34.3981 32.1987C34.5374 32.3416 34.6227 32.5373 34.6227 32.7326C34.6227 32.928 34.5373 33.1237 34.3981 33.2665C34.2508 33.402 34.0497 33.4846 33.8484 33.4846Z" fill="white"/>
<path id="Vector_20" d="M46.65 51.9157C46.4481 51.9157 46.2469 51.8331 46.1002 51.698C45.9603 51.5549 45.8756 51.3669 45.8756 51.1638C45.8756 50.9684 45.9603 50.7731 46.1002 50.6298C46.3868 50.3519 46.9131 50.3519 47.1998 50.6298C47.339 50.773 47.4244 50.9684 47.4244 51.1638C47.4244 51.3668 47.3389 51.5548 47.1998 51.698C47.0524 51.8331 46.8512 51.9157 46.65 51.9157Z" fill="white"/>
<path id="Vector_21" d="M43.1566 35.2441C42.9555 35.2441 42.7543 35.1615 42.6068 35.0261C42.4676 34.8832 42.3822 34.6879 42.3822 34.4922C42.3822 34.2891 42.4677 34.1011 42.6068 33.9583C42.8934 33.6799 43.4205 33.6799 43.6988 33.9583C43.8463 34.0937 43.931 34.2891 43.931 34.4922C43.931 34.6879 43.8463 34.8832 43.6988 35.0261C43.5597 35.1615 43.3586 35.2441 43.1566 35.2441Z" fill="white"/>
<path id="Vector_22" d="M46.5878 38.5454C46.3866 38.5454 46.1847 38.4701 46.0379 38.3273C45.8981 38.1919 45.8134 37.9965 45.8134 37.7934C45.8134 37.5981 45.8981 37.4024 46.0379 37.2595C46.3321 36.9812 46.8433 36.9812 47.1375 37.2595C47.2843 37.4024 47.3621 37.5981 47.3621 37.7934C47.3621 37.9965 47.2842 38.1918 47.1375 38.3273C46.9901 38.4702 46.7965 38.5454 46.5878 38.5454Z" fill="white"/>
<path id="Vector_23" d="M29.3877 35.2966C29.1782 35.2966 28.9846 35.2213 28.8379 35.0786C28.698 34.9431 28.6133 34.7477 28.6133 34.552C28.6133 34.3489 28.698 34.1536 28.8379 34.0181C29.1245 33.7397 29.6508 33.7397 29.9375 34.0181C30.0767 34.1535 30.162 34.3489 30.162 34.552C30.162 34.7477 30.0766 34.943 29.9375 35.0786C29.7901 35.2213 29.5889 35.2966 29.3877 35.2966Z" fill="white"/>
<path id="Vector_24" d="M48.4772 47.5691C48.276 47.5691 48.0749 47.4938 47.9273 47.351C47.7881 47.2081 47.7028 47.0202 47.7028 46.8171C47.7028 46.6218 47.7882 46.4261 47.9273 46.2832C48.2215 46.0049 48.7327 46.0049 49.0269 46.2832C49.1744 46.4261 49.2515 46.6218 49.2515 46.8171C49.2515 47.0202 49.1744 47.2081 49.0269 47.351C48.8803 47.4939 48.6867 47.5691 48.4772 47.5691Z" fill="white"/>
<path id="Vector_25" d="M38.6809 33.4623C38.4714 33.4623 38.2778 33.387 38.1311 33.2442C37.9912 33.1013 37.9065 32.9133 37.9065 32.7103C37.9065 32.5146 37.9912 32.3193 38.1311 32.1837C38.4177 31.8981 38.9365 31.8981 39.2307 32.1837C39.3699 32.3192 39.4553 32.5146 39.4553 32.7103C39.4553 32.9133 39.3698 33.1087 39.2307 33.2442C39.0833 33.387 38.8821 33.4623 38.6809 33.4623Z" fill="white"/>
<g id="Group_3">
<path id="Vector_26" d="M40.3669 51.969C40.6974 51.969 41.0256 51.8684 41.3062 51.6705C41.8031 51.3201 42.0465 50.7378 41.9429 50.1507L41.9079 49.9526L40.0112 48.1109L40.4167 50.4048L41.1798 50.2777L40.3411 50.4576L36.6769 48.5873C36.4516 48.4719 36.1823 48.4719 35.957 48.5873L32.2928 50.4576L32.6528 51.1233L32.218 50.4047L32.9176 46.4432C32.9606 46.1993 32.8775 45.9504 32.6952 45.7775L29.7306 42.9718L29.1898 43.5105L29.7593 42.8862L33.8553 42.3083C33.9046 42.3014 33.9509 42.2864 33.997 42.2708L32.6461 40.959L29.5362 41.3977C28.929 41.4836 28.4343 41.8893 28.2445 42.4559C28.0546 43.0225 28.2097 43.6327 28.6491 44.0491L31.3225 46.5785L30.6918 50.1504C30.5882 50.7376 30.8316 51.3199 31.3285 51.6702C31.8231 52.0194 32.4697 52.0653 33.0127 51.7888L36.3169 50.1024L39.6211 51.7888C39.8572 51.9095 40.1128 51.969 40.3669 51.969Z" fill="#010101"/>
<path id="Vector_27" d="M23.9284 45.2756C23.7264 45.2756 23.5253 45.1926 23.3777 45.0576C23.2385 44.9147 23.1539 44.719 23.1539 44.5237C23.1539 44.328 23.2386 44.1326 23.3777 43.9898C23.6644 43.7114 24.1831 43.7114 24.4698 43.9898C24.6172 44.1326 24.7027 44.328 24.7027 44.5237C24.7027 44.719 24.6172 44.9147 24.4698 45.0576C24.3307 45.1926 24.1295 45.2756 23.9284 45.2756Z" fill="#010101"/>
<path id="Vector_28" d="M36.3191 57.3074C36.1172 57.3074 35.916 57.2244 35.7686 57.0893C35.6218 56.9464 35.5447 56.7507 35.5447 56.5554C35.5447 56.3597 35.6218 56.1644 35.7686 56.0215C36.0635 55.7432 36.574 55.7432 36.8606 56.0215C37.0081 56.1644 37.0935 56.3597 37.0935 56.5554C37.0935 56.7507 37.0081 56.9464 36.8606 57.0893C36.7214 57.2244 36.5203 57.3074 36.3191 57.3074Z" fill="#010101"/>
<path id="Vector_29" d="M27.5524 53.7806C27.3512 53.7806 27.1493 53.7053 27.0101 53.5625C26.8627 53.4194 26.778 53.2239 26.778 53.0286C26.778 52.8329 26.8627 52.6376 27.0101 52.502C27.2967 52.2237 27.8155 52.2164 28.1021 52.502C28.2489 52.6375 28.3267 52.8329 28.3267 53.0286C28.3267 53.2239 28.2488 53.4193 28.1021 53.5625C27.9631 53.7054 27.7612 53.7806 27.5524 53.7806Z" fill="#010101"/>
<path id="Vector_30" d="M24.8731 49.8774C24.6636 49.8774 24.4624 49.8025 24.3232 49.6594C24.1758 49.5165 24.0986 49.3212 24.0986 49.1255C24.0986 48.9301 24.1758 48.7344 24.3232 48.5993C24.6099 48.3136 25.1286 48.3136 25.4153 48.5993C25.562 48.7344 25.6474 48.9301 25.6474 49.1255C25.6474 49.3212 25.5619 49.5165 25.4153 49.6594C25.2754 49.8025 25.0742 49.8774 24.8731 49.8774Z" fill="#010101"/>
<path id="Vector_31" d="M41.0581 56.3897C40.857 56.3897 40.6558 56.3144 40.5083 56.1716C40.3691 56.0364 40.2837 55.8407 40.2837 55.6377C40.2837 55.4423 40.3692 55.2466 40.5083 55.1038C40.8025 54.8254 41.3137 54.8254 41.6079 55.1038C41.7477 55.2466 41.8325 55.4423 41.8325 55.6377C41.8325 55.8334 41.7477 56.0287 41.6079 56.1716C41.4612 56.3144 41.2601 56.3897 41.0581 56.3897Z" fill="#010101"/>
<path id="Vector_32" d="M24.8731 40.6733C24.6636 40.6733 24.4624 40.5907 24.3232 40.4476C24.1758 40.3124 24.0986 40.1167 24.0986 39.9214C24.0986 39.7183 24.1758 39.5226 24.3232 39.3875C24.6099 39.1091 25.1286 39.1091 25.4153 39.3875C25.562 39.5303 25.6474 39.7183 25.6474 39.9214C25.6474 40.1167 25.5619 40.3124 25.4153 40.4476C25.2754 40.5907 25.0742 40.6733 24.8731 40.6733Z" fill="#010101"/>
<path id="Vector_33" d="M31.5712 56.39C31.37 56.39 31.1689 56.3147 31.0297 56.1719C30.8822 56.0291 30.7968 55.8411 30.7968 55.638C30.7968 55.4427 30.8822 55.247 31.0297 55.1115C31.3155 54.8258 31.8351 54.8258 32.1209 55.1115C32.2684 55.2469 32.3455 55.4426 32.3455 55.638C32.3455 55.8411 32.2684 56.0291 32.1209 56.1719C31.9818 56.3147 31.7807 56.39 31.5712 56.39Z" fill="#010101"/>
<path id="Vector_34" d="M24.1757 47.6743C23.9745 47.6743 23.7734 47.5913 23.6258 47.4562C23.4866 47.3134 23.4012 47.1177 23.4012 46.9223C23.4012 46.7266 23.4867 46.5313 23.6258 46.3884C23.92 46.1101 24.4312 46.1101 24.7254 46.3884C24.8653 46.5313 24.95 46.7266 24.95 46.9223C24.95 47.1177 24.8653 47.3134 24.7254 47.4562C24.5788 47.5914 24.3768 47.6743 24.1757 47.6743Z" fill="#010101"/>
<path id="Vector_35" d="M38.7892 57.0667C38.5805 57.0667 38.3786 56.984 38.2394 56.8486C38.0919 56.7057 38.0148 56.5104 38.0148 56.3147C38.0148 56.1193 38.0919 55.9236 38.2394 55.7808C38.526 55.5024 39.0448 55.5024 39.3314 55.7808C39.4781 55.9236 39.5635 56.1193 39.5635 56.3147C39.5635 56.5104 39.4781 56.7057 39.3314 56.8486C39.1924 56.984 38.9905 57.0667 38.7892 57.0667Z" fill="#010101"/>
<path id="Vector_36" d="M25.9877 38.6355C25.779 38.6355 25.5778 38.5529 25.4378 38.4174C25.2911 38.2746 25.2133 38.0788 25.2133 37.8835C25.2133 37.6805 25.2912 37.4925 25.4378 37.3496C25.7245 37.0713 26.2432 37.0713 26.5299 37.3496C26.6773 37.4925 26.762 37.6878 26.762 37.8835C26.762 38.0788 26.6773 38.2746 26.5299 38.4174C26.3908 38.5529 26.1896 38.6355 25.9877 38.6355Z" fill="#010101"/>
<path id="Vector_37" d="M29.481 55.3073C29.2715 55.3073 29.0703 55.2246 28.9311 55.0892C28.7837 54.9463 28.7065 54.7583 28.7065 54.5553C28.7065 54.3596 28.7837 54.1642 28.9311 54.0287C29.217 53.743 29.7365 53.743 30.0224 54.0287C30.1698 54.1641 30.2553 54.3596 30.2553 54.5553C30.2553 54.7583 30.1698 54.9463 30.0224 55.0892C29.8834 55.2246 29.6821 55.3073 29.481 55.3073Z" fill="#010101"/>
<path id="Vector_38" d="M26.0421 52.0059C25.841 52.0059 25.6398 51.9232 25.4923 51.7805C25.3531 51.645 25.2677 51.4496 25.2677 51.2539C25.2677 51.0508 25.3532 50.8629 25.4923 50.72C25.7865 50.4416 26.3052 50.4416 26.5919 50.72C26.7393 50.8629 26.8165 51.0508 26.8165 51.2539C26.8165 51.4496 26.7393 51.6449 26.5919 51.7805C26.4452 51.9232 26.2516 52.0059 26.0421 52.0059Z" fill="#010101"/>
<path id="Vector_39" d="M43.2498 55.2469C43.0411 55.2469 42.8399 55.1716 42.6999 55.0288C42.5532 54.8937 42.4753 54.698 42.4753 54.4949C42.4753 54.2996 42.5533 54.1039 42.6999 53.9687C42.979 53.6904 43.5053 53.6827 43.792 53.9687C43.9394 54.1039 44.0241 54.2996 44.0241 54.4949C44.0241 54.698 43.9394 54.8937 43.792 55.0288C43.6529 55.1716 43.4517 55.2469 43.2498 55.2469Z" fill="#010101"/>
<path id="Vector_40" d="M24.1522 42.9822C23.9511 42.9822 23.7499 42.8996 23.6024 42.7568C23.4632 42.6213 23.3778 42.4259 23.3778 42.2302C23.3778 42.0272 23.4633 41.8392 23.6024 41.6963C23.889 41.418 24.4161 41.418 24.7028 41.6963C24.8495 41.8392 24.9267 42.0272 24.9267 42.2302C24.9267 42.4259 24.8495 42.6212 24.7028 42.7568C24.5553 42.8996 24.3542 42.9822 24.1522 42.9822Z" fill="#010101"/>
<path id="Vector_41" d="M33.949 57.0894C33.7478 57.0894 33.5467 57.0064 33.4067 56.8636C33.26 56.7284 33.1821 56.5327 33.1821 56.3374C33.1821 56.1343 33.2601 55.9386 33.4067 55.8035C33.6933 55.5251 34.2121 55.5251 34.4988 55.8035C34.6462 55.9386 34.7233 56.1343 34.7233 56.3374C34.7233 56.5327 34.6462 56.7284 34.4988 56.8636C34.3596 57.0064 34.1585 57.0894 33.949 57.0894Z" fill="#010101"/>
<path id="Vector_42" d="M27.0094 35.4858C26.8626 35.621 26.778 35.8161 26.778 36.0186C26.778 36.2139 26.8627 36.4096 27.0101 36.5448C27.1493 36.6877 27.3511 36.7706 27.5524 36.7706C27.7605 36.7706 27.9535 36.6879 28.1009 36.5457L27.0094 35.4858Z" fill="#010101"/>
<path id="Vector_43" d="M45.0775 53.781C45.2782 53.781 45.4788 53.7059 45.6262 53.5635L44.5312 52.5002L44.5277 52.5024C44.3885 52.6379 44.3031 52.8333 44.3031 53.029C44.3031 53.2316 44.3886 53.4273 44.5277 53.5629C44.6744 53.7058 44.8764 53.781 45.0775 53.781Z" fill="#010101"/>
</g>
</g>
</g>
</g>
</svg>
