<svg width="84" height="84" viewBox="0 0 84 84" fill="none" xmlns="http://www.w3.org/2000/svg">
<g id="&#240;&#159;&#166;&#134; icon &#34;international&#34;">
<path id="Vector" d="M0 0H83.8925V83.8925H0V0Z" fill="white" fill-opacity="0.01"/>
<g id="Group">
<path id="Vector_2" d="M41.9462 76.9018C61.2514 76.9018 76.9014 61.2518 76.9014 41.9466C76.9014 22.6414 61.2514 6.99146 41.9462 6.99146C22.6409 6.99146 6.99097 22.6414 6.99097 41.9466C6.99097 61.2518 22.6409 76.9018 41.9462 76.9018Z" stroke="white" stroke-width="6.99104"/>
<path id="Vector_3" d="M10.4863 54.1554C15.0863 56 18.3977 56 20.4204 54.1554C23.4545 51.3886 20.8364 42.9911 25.0857 40.6751C29.3349 38.3592 35.8089 48.6252 41.86 45.2473C47.9109 41.8692 41.2899 32.8619 45.4891 29.2104C49.6882 25.5588 55.1486 29.677 56.103 23.5712C57.0575 17.4655 51.6497 20.1136 50.6121 14.3438C49.9202 10.4973 49.9202 8.47465 50.6121 8.27588" stroke="white" stroke-width="6.99104" stroke-linecap="round"/>
<path id="Vector_4" d="M50.7217 75.7662C47.4463 72.414 46.2671 69.2981 47.1843 66.4181C48.5601 62.0983 50.8296 62.3537 51.8192 59.6828C52.8086 57.0117 50.0134 53.2075 56.2156 49.9554C60.3505 47.7873 66.0358 50.2994 73.2712 57.4914" stroke="white" stroke-width="6.99104" stroke-linecap="round"/>
</g>
</g>
</svg>
