<svg width="80" height="70" viewBox="0 0 80 80" fill="none" xmlns="http://www.w3.org/2000/svg">
<g id="&#240;&#159;&#166;&#134; icon &#34;photo camera&#34;">
<path id="Vector" d="M39.7 50.2865C45.5469 50.2865 50.2867 45.5467 50.2867 39.6999C50.2867 33.8531 45.5469 29.1133 39.7 29.1133C33.8532 29.1133 29.1134 33.8531 29.1134 39.6999C29.1134 45.5467 33.8532 50.2865 39.7 50.2865Z" fill="white"/>
<path id="Vector_2" d="M29.7749 6.6167L23.7207 13.2333H13.2333C9.59419 13.2333 6.6167 16.2108 6.6167 19.85V59.5498C6.6167 63.189 9.59419 66.1665 13.2333 66.1665H66.1665C69.8056 66.1665 72.7831 63.189 72.7831 59.5498V19.85C72.7831 16.2108 69.8056 13.2333 66.1665 13.2333H55.6791L49.6249 6.6167H29.7749ZM39.6999 56.2415C30.5689 56.2415 23.1583 48.8309 23.1583 39.6999C23.1583 30.5689 30.5689 23.1583 39.6999 23.1583C48.8309 23.1583 56.2415 30.5689 56.2415 39.6999C56.2415 48.8309 48.8309 56.2415 39.6999 56.2415Z" fill="white"/>
</g>
</svg>
