<svg id="Layer_1" data-name="Layer 1" xmlns="http://www.w3.org/2000/svg" xmlns:xlink="http://www.w3.org/1999/xlink" viewBox="0 0 1252 1149.43"><defs><style>.cls-1{fill:none;}.cls-2{clip-path:url(#clip-path);}</style><clipPath id="clip-path" transform="translate(-238 -73.29)"><rect class="cls-1" width="1728" height="1296"/></clipPath></defs><title>iee</title><g class="cls-2"><path d="M864,73.29c-345.73,0-626,257.3-626,574.71s280.27,574.71,626,574.71S1490,965.41,1490,648,1209.73,73.29,864,73.29m401.93,676.58c-21.7,46.85-59.13,86.26-100.76,112.32A641.72,641.72,0,0,1,955.94,923.6l-.25.07c-1.16.29-5.27-.32-4,2.39,2.35,13,.41,26.39,1.17,39.58s5.08,27.42,16.2,34.56c7.56,4.86,16.94,5.62,25.9,6.25,24.2,1.7,48.41,3.41,73,5.18A33.63,33.63,0,0,1,1081,1040.4c-.79,11-7.44,21.32-19.21,27.09-135.94-.28-271.89-.56-408,1l-1.74.35a34.25,34.25,0,0,1-16.28-28.37c-.14-11.39,6-22.66,16.37-31.17,27-1.63,57.79-2.26,84.81-3.89a26.11,26.11,0,0,0,11-2.84l.51-.69a77.77,77.77,0,0,0,11.12-80.2A441,441,0,0,1,506.6,822.83l.66.68c-56.33-50-85.24-129.18-74.41-203.73S494,477.58,562.11,445c53.61-29.79,113.78-47.67,173.24-50.62l.66,33.52,1,36,.13,1.05c-13.54,1.36-46.4,12.95-54.95,18.32s-35.65,25.53-48.82,44.9-21,58.88-24.68,87.13c-4.59,34.78-1,69.13-.1,92.15s4.89,58.59,32.17,85.86,46.57,41,64.67,46.16,20.46,12.07,72.43,16.68,76.09,4.8,76.09,4.8l34.74-.23s48.72,3.07,92.94-10.43,96.48-39.52,115.9-82.2c15.91-35,16-43.42,17-71,1.06-27.33,2.5-67.09.57-82.37s-11.4-81.78-41.47-106.8-46.23-33.24-65.33-38.63-55.67-13.64-55.67-13.64,0-.15-.07-.25c-.08,123.28.94,371.89.94,371.89l-.3-.17c-.71.65-7.09,3.39-26.64,5.16-80.07,6.94-100.25,1-161.9-8.29q3-235.36-.36-470.77c-.1-.3-.19-.6.16-3.86.18-14.4-10.81-27.07-23.85-33.19s-27.84-7-42.24-7.51-29.14-.91-42.64-4.48c-13.92-4.78-23-20.7-20-35.12s17.58-25.47,38.63-24.81a1090.29,1090.29,0,0,0,252.58-59c8.37-2.34,17.6,2.24,22.58,9.37s6.29,16.24,6.64,25.3q-1.62,83.43-3.52,166.85l1-1c45.64,7.17,91.44,14.52,135.53,28.31s86.72,34.36,121,65.28c35.52,32,61.23,74.75,72.13,119.22a239.71,239.71,0,0,1-16.38,151.3" transform="translate(-238 -73.29)"/></g></svg>